<svg width="32" height="32" viewBox="0 0 28 28" fill="none" xmlns="http://www.w3.org/2000/svg">
  <rect width="32" height="32" fill="white"/>
  <path d="M14 3.5c-2.8 3.1-3.6 6-2.2 8.1 1.2 1.8 2.2 2.4 2.2 2.4s1-0.6 2.2-2.4c1.4-2.1 0.6-5-2.2-8.1Z" fill="#F2A9C7"/>
  <path d="M6.7 13.6c3.6-0.6 6.3 0.2 7.7 2 1.2 1.6 1.3 2.8 1.3 2.8s-1.1 0.6-3 0.9c-2.3 0.4-4.7-1.4-6-5.7Z" fill="#F7C6D9"/>
  <path d="M21.3 13.6c-3.6-0.6-6.3 0.2-7.7 2-1.2 1.6-1.3 2.8-1.3 2.8s1.1 0.6 3 0.9c2.3 0.4 4.7-1.4 6-5.7Z" fill="#F7C6D9"/>
  <path d="M13.3 20.4c0.4 0.4 1 0.4 1.4 0l1.2-1.2c0.4-0.4 0.4-1 0-1.4-0.4-0.4-1-0.4-1.4 0l-0.5 0.5-0.5-0.5c-0.4-0.4-1-0.4-1.4 0-0.4 0.4-0.4 1 0 1.4l1.2 1.2Z" fill="#E7D7F6" opacity="0.9"/>
</svg>